<?xml version="1.0" standalone="no"?>
<!DOCTYPE svg PUBLIC "-//W3C//DTD SVG 20010904//EN"
 "http://www.w3.org/TR/2001/REC-SVG-20010904/DTD/svg10.dtd">
<svg version="1.0" xmlns="http://www.w3.org/2000/svg"
 width="240.000000pt" height="240.000000pt" viewBox="0 0 240.000000 240.000000"
 preserveAspectRatio="xMidYMid meet">

<g transform="translate(0.000000,240.000000) scale(0.100000,-0.100000)"
fill="#000000" stroke="none">
<path d="M0 1200 l0 -1200 1200 0 1200 0 0 1200 0 1200 -1200 0 -1200 0 0
-1200z m1205 290 c75 -58 153 -117 174 -133 22 -17 78 -39 145 -58 131 -36
166 -53 166 -79 0 -19 -7 -20 -175 -20 -197 0 -205 2 -270 69 -45 47 -71 51
-128 21 -33 -18 -56 -20 -217 -20 l-179 0 6 68 c7 87 21 116 56 120 21 3 35
-5 64 -37 32 -36 42 -41 80 -41 52 0 93 19 122 56 25 31 27 57 6 74 -24 20
-18 96 6 88 5 -2 69 -50 144 -108z m6 -302 l37 -43 206 3 c113 2 206 1 206 -2
0 -3 -13 -12 -30 -21 -25 -13 -91 -15 -443 -15 -228 0 -429 3 -446 6 -28 6
-31 10 -31 45 l0 39 188 0 c136 1 195 5 217 15 47 21 57 18 96 -27z m-273
-156 c7 -5 10 -16 6 -25 -4 -12 -11 -14 -29 -7 -39 15 -40 -8 -1 -27 19 -9 37
-22 40 -29 9 -24 -6 -53 -33 -62 -28 -9 -91 2 -91 17 0 17 25 30 40 21 8 -6
21 -10 28 -10 23 0 12 18 -23 39 -37 21 -47 55 -23 79 14 14 67 16 86 4z m80
-24 c2 -20 9 -28 23 -28 14 0 19 7 19 30 0 23 4 30 20 30 18 0 20 -7 20 -80 0
-73 -2 -80 -20 -80 -16 0 -20 7 -20 30 0 23 -4 30 -20 30 -18 0 -26 -20 -21
-52 0 -5 -10 -8 -24 -8 -25 0 -25 1 -25 81 0 78 1 80 23 77 16 -2 23 -11 25
-30z m232 12 c22 -22 27 -78 9 -111 -15 -29 -57 -42 -90 -29 -77 32 -56 160
27 160 21 0 42 -8 54 -20z m150 0 c0 -16 -7 -20 -35 -20 -19 0 -35 -4 -35 -10
0 -5 16 -10 35 -10 28 0 35 -4 35 -20 0 -16 -7 -20 -35 -20 -19 0 -35 -4 -35
-9 0 -11 47 -24 59 -16 5 2 11 -4 14 -15 5 -18 0 -20 -54 -20 l-59 0 0 80 0
80 55 0 c48 0 55 -2 55 -20z m124 11 c4 -5 3 -16 0 -25 -5 -12 -10 -13 -26 -5
-14 7 -23 8 -30 1 -7 -7 1 -15 25 -25 81 -34 44 -118 -43 -97 -16 4 -25 13
-25 25 0 20 3 20 48 8 30 -9 19 14 -18 36 -37 21 -47 55 -23 79 14 14 84 16
92 3z m-516 -205 c-2 -13 -10 -21 -23 -21 -23 0 -33 34 -14 45 20 13 40 -1 37
-24z m-115 14 c-13 -5 -23 -12 -23 -15 0 -3 10 -10 23 -15 l22 -9 -22 0 c-12
-1 -25 4 -28 9 -12 19 4 40 27 39 l23 0 -22 -9z m226 -19 c0 -22 -2 -23 -8 -7
-7 17 -8 17 -23 2 -22 -21 -26 -20 -24 7 1 19 7 24 29 24 23 0 27 -4 26 -26z
m94 14 c-1 -5 -11 -16 -22 -24 -20 -12 -21 -11 -21 13 0 23 4 27 23 24 12 -2
21 -7 20 -13z m97 -24 c0 -3 -11 -6 -25 -6 -29 0 -29 0 -14 27 11 21 12 21 25
3 8 -10 14 -21 14 -24z m76 28 c4 -8 9 -7 15 2 6 10 9 5 9 -15 0 -28 -1 -28
-19 -12 -18 17 -19 17 -24 -1 -3 -12 -5 -9 -6 10 -1 27 12 36 25 16z m94 -1
c0 -9 3 -8 10 2 13 22 18 8 5 -16 l-11 -22 -11 24 c-6 13 -7 24 -2 24 5 0 9
-6 9 -12z"/>
<path d="M1177 993 c-14 -13 -7 -71 9 -77 32 -12 54 26 38 68 -6 16 -35 22
-47 9z"/>
<path d="M970 825 c0 -8 7 -15 15 -15 8 0 15 7 15 15 0 8 -7 15 -15 15 -8 0
-15 -7 -15 -15z"/>
</g>
</svg>
