<?xml version="1.0" standalone="no"?>
<!DOCTYPE svg PUBLIC "-//W3C//DTD SVG 20010904//EN"
 "http://www.w3.org/TR/2001/REC-SVG-20010904/DTD/svg10.dtd">
<svg version="1.0" xmlns="http://www.w3.org/2000/svg"
 width="238.000000pt" height="135.000000pt" viewBox="0 0 238.000000 135.000000"
 preserveAspectRatio="xMidYMid meet">

<g transform="translate(0.000000,135.000000) scale(0.100000,-0.100000)"
fill="#000000" stroke="none">
<path d="M0 675 l0 -675 1190 0 1190 0 0 675 0 675 -1190 0 -1190 0 0 -675z
m550 203 c-10 -24 -22 -69 -25 -99 -5 -45 -2 -62 17 -99 49 -94 142 -108 353
-51 66 18 264 71 440 117 176 47 405 108 508 135 104 28 191 49 193 46 7 -7
-1241 -539 -1334 -567 -146 -46 -248 -36 -313 29 -104 104 -57 281 131 494 23
26 44 46 46 44 2 -2 -5 -24 -16 -49z"/>
</g>
</svg>
